<svg width="280.5" height="280.5" version="1.1" viewBox="0 0 280.5 280.5" xml:space="preserve" xmlns="http://www.w3.org/2000/svg"><g transform="matrix(1.3333 0 0 -1.3333 -844.1 756.63)"><g transform="scale(.1)"><path d="m7382.6 4099.5c288.59 0 523.37 234.78 523.37 523.37s-234.78 523.38-523.37 523.38c-288.58 0-523.37-234.79-523.37-523.38s234.79-523.37 523.37-523.37"/><path d="m7326.9 5383.1c0-30.76 24.94-55.69 55.69-55.69 30.76 0 55.7 24.93 55.7 55.69v235.94c0 30.75-24.94 55.69-55.7 55.69-30.75 0-55.69-24.94-55.69-55.69v-235.94"/><path d="m7326.9 3862.6v-235.94c0-30.76 24.94-55.7 55.69-55.7 30.76 0 55.7 24.94 55.7 55.7v235.94c0 30.75-24.94 55.69-55.7 55.69-30.75 0-55.69-24.94-55.69-55.69"/><path d="m7002.5 5225.5c9.46 0 19.03 2.41 27.8 7.47 26.64 15.38 35.77 49.45 20.39 76.09l-117.97 204.32c-15.38 26.64-49.45 35.77-76.08 20.39-26.64-15.38-35.77-49.44-20.39-76.08l117.97-204.33c10.31-17.87 29.03-27.86 48.28-27.86"/><path d="m7734.9 4012.7c-26.64-15.38-35.76-49.44-20.39-76.08l117.98-204.33c10.31-17.86 29.03-27.85 48.28-27.85 9.45 0 19.03 2.4 27.8 7.47 26.64 15.38 35.77 49.44 20.39 76.08l-117.97 204.33c-15.38 26.63-49.45 35.76-76.09 20.38"/><path d="m6471.6 5148.8c-15.38-26.64-6.25-60.71 20.39-76.09l204.33-117.96c8.77-5.07 18.35-7.47 27.8-7.47 19.24 0 37.97 9.99 48.28 27.85 15.38 26.64 6.25 60.71-20.38 76.09l-204.33 117.96c-26.64 15.38-60.71 6.26-76.09-20.38"/><path d="m8273.2 4173-204.32 117.97c-26.63 15.37-60.71 6.26-76.09-20.39-15.38-26.63-6.25-60.7 20.39-76.08l204.33-117.97c8.77-5.06 18.34-7.47 27.8-7.47 19.24 0 37.97 9.99 48.28 27.86 15.38 26.63 6.25 60.7-20.39 76.08"/><path d="m6678 4622.8c0 30.76-24.94 55.7-55.7 55.7h-235.93c-30.76 0-55.7-24.94-55.7-55.7s24.94-55.7 55.7-55.7h235.93c30.76 0 55.7 24.94 55.7 55.7"/><path d="m8378.8 4678.5h-235.94c-30.76 0-55.7-24.94-55.7-55.7s24.94-55.7 55.7-55.7h235.94c30.76 0 55.7 24.94 55.7 55.7s-24.94 55.7-55.7 55.7"/><path d="m6696.4 4291-204.33-117.97c-26.64-15.38-35.77-49.45-20.39-76.08 10.32-17.87 29.04-27.86 48.29-27.86 9.45 0 19.03 2.41 27.8 7.47l204.33 117.97c26.63 15.38 35.76 49.45 20.38 76.08-15.38 26.65-49.45 35.77-76.08 20.39"/><path d="m8217.5 5169.2-204.33-117.96c-26.64-15.38-35.77-49.45-20.39-76.09 10.32-17.86 29.04-27.85 48.29-27.85 9.45 0 19.03 2.4 27.8 7.47l204.32 117.96c26.64 15.38 35.77 49.45 20.39 76.09s-49.45 35.76-76.08 20.38"/><path d="m6954.2 3992.3-117.97-204.33c-15.38-26.64-6.25-60.71 20.39-76.08 8.77-5.07 18.35-7.47 27.8-7.47 19.24 0 37.97 9.99 48.28 27.85l117.97 204.33c15.38 26.64 6.25 60.71-20.39 76.08-26.63 15.38-60.7 6.26-76.08-20.38"/><path d="m7734.9 5233c8.77-5.06 18.35-7.47 27.8-7.47 19.25 0 37.97 9.99 48.29 27.86l117.97 204.33c15.38 26.64 6.25 60.7-20.39 76.08-26.63 15.37-60.71 6.25-76.08-20.39l-117.98-204.32c-15.37-26.64-6.25-60.7 20.39-76.09"/></g></g></svg>
