<svg width="251.88" height="220.4" version="1.1" viewBox="0 0 251.88 220.4" xml:space="preserve" xmlns="http://www.w3.org/2000/svg"><g transform="matrix(1.3333 0 0 -1.3333 -1239.2 1110)"><g transform="scale(.1)" fill="#61c9e7"><path d="m9648.3 7156h1180.1c195.5 0 354.5 158.13 354.5 352.49 0 110.6-50.7 212.67-139.2 280.03-9.5 7.25-16.4 17.35-19.8 28.84-50.9 176.04-214.6 298.99-398.1 298.99-33.8 0-67.5-4.1-100.1-12.19-22.5-5.57-46.1 3.37-59.3 22.48-85.6 124.38-226.7 198.64-377.4 198.64-114.65 0-224.33-42.55-308.86-119.82-84-76.79-136.2-181.18-146.97-293.95-1.87-19.5-13.84-36.59-31.53-45.01-5.51-2.61-11.06-5.46-16.5-8.47-4.65-2.57-9.64-4.46-14.82-5.62-77.28-17.24-147.48-60.68-197.66-122.3-51.57-63.32-78.83-139.95-78.83-221.62 0-194.36 159.03-352.49 354.5-352.49"/><path d="m9653.8 6923.9c-69.48 0-125.8-56.32-125.8-125.8s56.32-125.8 125.8-125.8 125.8 56.32 125.8 125.8-56.32 125.8-125.8 125.8"/><path d="m10357 6798.1c0 69.48-56.4 125.8-125.8 125.8-69.5 0-125.8-56.32-125.8-125.8s56.3-125.8 125.8-125.8c69.4 0 125.8 56.32 125.8 125.8"/><path d="m10902 6798.1c0 69.48-56.3 125.8-125.8 125.8-69.4 0-125.8-56.32-125.8-125.8s56.4-125.8 125.8-125.8c69.5 0 125.8 56.32 125.8 125.8"/></g></g></svg>
