<svg width="294.71" height="258.57" version="1.1" viewBox="0 0 294.71 258.57" xml:space="preserve" xmlns="http://www.w3.org/2000/svg"><g transform="matrix(1.3333 0 0 -1.3333 -75.451 738.24)"><g transform="scale(.1)"><g fill="#61c9e7"><path d="m1383.7 4643.1c0 218.95 198.06 397.09 441.52 397.09 52.59 0 103.58-8.11 152.1-24.16 50.27 51.47 115.62 88.62 187.82 107.66-64.32 129.97-198.91 216.2-347.42 216.2-31.58 0-63.05-3.84-93.53-11.4-22.53-5.58-46.13 3.37-59.29 22.49-80.08 116.33-212.05 185.78-353.03 185.78-107.2 0-209.78-39.8-288.84-112.07-78.56-71.81-127.38-169.44-137.46-274.91-1.863-19.5-13.832-36.58-31.519-45-5.121-2.43-10.297-5.09-15.379-7.9-4.648-2.57-9.637-4.46-14.816-5.62-72.118-16.09-137.63-56.62-184.46-114.13-48.117-59.08-73.551-130.59-73.551-206.79 0-181.38 148.4-328.94 330.82-328.94h397.2c10.96 67.72 41.89 131.39 90.24 184.7-0.27 5.69-0.41 11.36-0.41 17"/><path d="m1053.3 3597.5c5.41 0 10.91 0.79 16.34 2.45 29.41 9.02 45.95 40.17 36.93 69.58l-67.06 218.82c-9.01 29.41-40.161 45.94-69.571 36.93s-45.945-40.16-36.929-69.57l67.06-218.83c7.35-23.97 29.4-39.38 53.23-39.38"/><path d="m1519.7 3597.5c5.4 0 10.9 0.79 16.34 2.45 29.41 9.02 45.94 40.17 36.93 69.58l-67.06 218.82c-9.01 29.41-40.17 45.94-69.57 36.93-29.41-9.01-45.95-40.16-36.93-69.57l67.06-218.83c7.35-23.97 29.4-39.38 53.23-39.38"/><path d="m1986.1 3597.5c5.4 0 10.9 0.79 16.34 2.45 29.41 9.02 45.94 40.17 36.93 69.58l-67.06 218.82c-9.02 29.41-40.16 45.94-69.57 36.93s-45.95-40.16-36.93-69.57l67.06-218.83c7.34-23.97 29.4-39.38 53.23-39.38"/></g><path d="m2585.4 4633.8c-28.9 10.46-43.86 42.36-33.43 71.27 8.57 23.77 12.92 48.53 12.92 73.61 0 105.71-77.07 196.15-185.26 231.84-31.85 10.51-66.37 16.32-102.45 16.32-18.89 0-37.5-1.65-55.66-4.74-74.28-12.64-140.56-50.23-183.71-105.91-15.55-20.07-42.72-27.07-66.04-17.04-45.77 19.7-95.07 29.69-146.53 29.69-182.03 0-330.13-128.16-330.13-285.69 0-10.13 0.65-20.47 1.92-30.74 2.15-17.41-4.03-34.82-16.68-46.99-36.83-35.4-61.7-78.18-72.86-123.97-4.39-18.01-6.72-36.48-6.72-55.16 0-19.29 2.42-38.09 6.92-56.23 29.99-120.97 154.62-211.97 303.43-211.97h754.74c171.13 0 310.35 120.31 310.35 268.2 0 108.4-74.89 205.55-190.81 247.51" fill="#4492a8"/></g></g></svg>
