<svg width="254.44" height="256.38" version="1.1" viewBox="0 0 254.44 256.38" xml:space="preserve" xmlns="http://www.w3.org/2000/svg"><g transform="matrix(1.3333 0 0 -1.3333 -477.64 353.88)"><g transform="scale(.1)" fill="#61c9e7"><path d="m5332.2 2117.3c-9.51 7.24-16.44 17.35-19.76 28.83-50.94 176.04-214.65 298.99-398.12 298.99-33.79 0-67.46-4.1-100.09-12.19-22.51-5.58-46.13 3.38-59.28 22.48-85.62 124.39-226.74 198.65-377.47 198.65-114.62 0-224.3-42.56-308.83-119.83-84.01-76.79-136.2-181.18-146.98-293.95-1.86-19.5-13.83-36.59-31.52-45-5.52-2.62-11.07-5.48-16.5-8.48-4.64-2.57-9.63-4.46-14.82-5.62-77.28-17.25-147.48-60.68-197.66-122.3-51.57-63.3-78.83-140-78.83-221.6 0-194.4 159.03-352.5 354.5-352.5h1180.1c195.47 0 354.49 158.1 354.49 352.5 0 110.6-50.74 212.65-139.2 280.02"/><path d="m5317.3 1244.8c0 30.8-24.94 55.7-55.7 55.7h-1462.7c-30.76 0-55.69-24.9-55.69-55.7 0-30.7 24.93-55.7 55.69-55.7h1462.7c30.76 0 55.7 25 55.7 55.7"/><path d="m5181 842.6h-1462.7c-30.76 0-55.7-25-55.7-55.704 0-30.796 24.94-55.699 55.7-55.699h1462.7c30.76 0 55.7 24.903 55.7 55.699 0 30.704-24.94 55.704-55.7 55.704"/><path d="m4049.5 1068.4c-30.76 0-55.7-24.9-55.7-55.7 0-30.7 24.94-55.7 55.7-55.7h536.06c30.76 0 55.69 25 55.69 55.7 0 30.8-24.93 55.7-55.69 55.7h-536.06"/><path d="m5434.9 1068.4h-536.05c-30.76 0-55.7-24.9-55.7-55.7 0-30.7 24.94-55.7 55.7-55.7h536.05c30.76 0 55.7 25 55.7 55.7 0 30.8-24.94 55.7-55.7 55.7"/></g></g></svg>
