<svg width="318.87" height="166.86" version="1.1" viewBox="0 0 318.87 166.86" xml:space="preserve" xmlns="http://www.w3.org/2000/svg"><g transform="matrix(1.3333 0 0 -1.3333 -1205.7 699.81)"><g transform="scale(.1)" fill="#dec60f"><path d="m10238 4659.8c-315.97 0-576.3-242.61-604.51-551.31h1208.9c-28.2 308.7-288.5 551.31-604.4 551.31"/><path d="m10183 5192.9v-270.01c0-30.76 24.9-55.7 55.7-55.7 30.7 0 55.7 24.94 55.7 55.7v270.01c0 30.76-25 55.7-55.7 55.7-30.8 0-55.7-24.94-55.7-55.7"/><path d="m9640.5 5088.4c-26.64-15.38-35.77-49.45-20.39-76.08l135.01-233.84c10.31-17.87 29.03-27.86 48.28-27.86 9.45 0 19.03 2.41 27.8 7.47 26.64 15.38 35.77 49.45 20.39 76.08l-135 233.84c-15.38 26.64-49.45 35.77-76.09 20.39"/><path d="m9512.7 4536.1-233.83 135.01c-26.63 15.37-60.71 6.25-76.09-20.39s-6.25-60.71 20.39-76.08l233.84-135.01c8.77-5.06 18.35-7.47 27.8-7.47 19.24 0 37.97 9.99 48.28 27.86 15.38 26.64 6.25 60.7-20.39 76.08"/><path d="m9424 4052.8c0 30.76-24.94 55.7-55.7 55.7h-270.01c-30.76 0-55.7-24.94-55.7-55.7s24.94-55.69 55.7-55.69h270.01c30.76 0 55.7 24.93 55.7 55.69"/><path d="m11378 4108.5h-270c-30.7 0-55.7-24.94-55.7-55.7s25-55.69 55.7-55.69h270c30.8 0 55.7 24.93 55.7 55.69s-24.9 55.7-55.7 55.7"/><path d="m11020 4439.6 233.8 135.01c26.7 15.37 35.8 49.44 20.4 76.08s-49.4 35.77-76.1 20.39l-233.8-135.01c-26.6-15.38-35.8-49.44-20.4-76.08 10.3-17.87 29-27.86 48.3-27.86 9.4 0 19 2.41 27.8 7.47"/><path d="m10646 4758c8.8-5.06 18.4-7.47 27.8-7.47 19.3 0 38 9.99 48.3 27.86l135 233.84c15.4 26.63 6.3 60.7-20.4 76.08-26.6 15.37-60.7 6.26-76-20.39l-135-233.84c-15.4-26.63-6.3-60.7 20.3-76.08"/></g></g></svg>
