<svg width="251.88" height="258.64" version="1.1" viewBox="0 0 251.88 258.64" xml:space="preserve" xmlns="http://www.w3.org/2000/svg"><g transform="matrix(1.3333 0 0 -1.3333 -487.94 1110)"><g transform="scale(.1)"><path d="m5548.6 7508.5c0 110.6-50.74 212.67-139.21 280.03-9.51 7.25-16.44 17.35-19.76 28.84-50.93 176.04-214.64 298.99-398.11 298.99-33.8 0-67.47-4.1-100.1-12.19-22.51-5.57-46.13 3.37-59.28 22.48-85.62 124.38-226.73 198.64-377.47 198.64-114.62 0-224.3-42.55-308.83-119.82-84-76.79-136.2-181.18-146.97-293.95-1.87-19.5-13.84-36.59-31.53-45-5.52-2.63-11.07-5.48-16.5-8.48-4.64-2.57-9.63-4.46-14.82-5.62-77.28-17.24-147.48-60.68-197.66-122.3-51.57-63.32-78.83-139.95-78.83-221.62 0-194.36 159.03-352.49 354.5-352.49h1180.1c195.47 0 354.5 158.13 354.5 352.49" fill="#4492a8"/><g fill="#61c9e7"><path d="m4159.6 6649.4c5.41 0 10.91 0.79 16.34 2.46 29.41 9.01 45.95 40.16 36.93 69.57l-67.06 218.82c-9.01 29.41-40.16 45.95-69.57 36.93-29.41-9.01-45.94-40.16-36.93-69.57l67.06-218.82c7.35-23.98 29.4-39.39 53.23-39.39"/><path d="m4465.2 6385.5c5.41 0 10.9 0.79 16.34 2.46 29.41 9.01 45.94 40.16 36.93 69.57l-67.06 218.82c-9.01 29.42-40.15 45.95-69.57 36.94-29.41-9.02-45.95-40.16-36.94-69.57l67.07-218.83c7.34-23.97 29.4-39.39 53.23-39.39"/><path d="m4853.8 6727.2c-29.41-9.01-45.94-40.16-36.93-69.57l67.06-218.82c7.35-23.98 29.4-39.4 53.23-39.4 5.41 0 10.91 0.8 16.34 2.47 29.41 9.01 45.95 40.16 36.93 69.57l-67.06 218.82c-9.01 29.41-40.17 45.95-69.57 36.93"/><path d="m4626 6649.4c5.4 0 10.9 0.79 16.34 2.46 29.41 9.01 45.94 40.16 36.93 69.57l-67.06 218.82c-9.01 29.41-40.17 45.95-69.57 36.93-29.41-9.01-45.95-40.16-36.93-69.57l67.06-218.82c7.35-23.98 29.4-39.39 53.23-39.39"/><path d="m5092.4 6649.4c5.4 0 10.9 0.79 16.34 2.46 29.41 9.01 45.94 40.16 36.93 69.57l-67.06 218.82c-9.01 29.41-40.16 45.95-69.57 36.93-29.41-9.01-45.95-40.16-36.93-69.57l67.06-218.82c7.34-23.98 29.4-39.39 53.23-39.39"/></g></g></g></svg>
