<svg width="251.87" height="223.45" version="1.1" viewBox="0 0 251.87 223.45" xml:space="preserve" xmlns="http://www.w3.org/2000/svg"><g transform="matrix(1.3333 0 0 -1.3333 -96.869 1110)"><g transform="scale(.1)"><path d="m1081 7156h1180.1c195.46 0 354.49 158.13 354.49 352.49 0 110.6-50.74 212.67-139.2 280.03-9.51 7.25-16.44 17.35-19.76 28.84-50.94 176.04-214.65 298.99-398.12 298.99-33.79 0-67.47-4.1-100.09-12.19-22.51-5.57-46.13 3.37-59.28 22.48-85.63 124.38-226.74 198.64-377.47 198.64-114.63 0-224.31-42.55-308.84-119.82-84-76.79-136.19-181.18-146.97-293.95-1.86-19.5-13.83-36.59-31.52-45-5.53-2.63-11.08-5.48-16.5-8.48-4.65-2.57-9.64-4.46-14.82-5.62-77.283-17.24-147.48-60.68-197.66-122.3-51.571-63.32-78.828-139.95-78.828-221.62 0-194.36 159.03-352.49 354.5-352.49" fill="#4492a8"/><g fill="#61c9e7"><path d="m1143.2 6977.1c-29.41-9.01-45.95-40.16-36.93-69.57l67.06-218.82c7.34-23.98 29.39-39.39 53.23-39.39 5.4 0 10.9 0.79 16.34 2.46 29.41 9.01 45.94 40.16 36.93 69.57l-67.06 218.82c-9.01 29.41-40.16 45.95-69.57 36.93"/><path d="m1609.6 6977.1c-29.41-9.01-45.95-40.16-36.94-69.57l67.06-218.82c7.35-23.98 29.4-39.39 53.24-39.39 5.4 0 10.9 0.79 16.34 2.46 29.41 9.01 45.94 40.16 36.93 69.57l-67.06 218.82c-9.02 29.41-40.17 45.95-69.57 36.93"/><path d="m2076 6977.1c-29.41-9.01-45.95-40.16-36.94-69.57l67.06-218.82c7.35-23.98 29.4-39.39 53.24-39.39 5.4 0 10.9 0.79 16.34 2.46 29.41 9.01 45.94 40.16 36.93 69.57l-67.06 218.82c-9.02 29.41-40.16 45.95-69.57 36.93"/></g></g></g></svg>
