<svg width="238.3" height="228.57" version="1.1" viewBox="0 0 238.3 228.57" xml:space="preserve" xmlns="http://www.w3.org/2000/svg"><g transform="matrix(1.3333 0 0 -1.3333 -128.91 347.53)"><g transform="scale(.1)"><g fill="#61c9e7"><path d="m1705.1 1840.6-38.9-145.2 138.91 57.4 126.06-81.8-11.7 149.8 116.81 94.6-146.14 35.2-53.86 140.3-78.62-128.1-150.11-7.8 97.55-114.4"/><path d="m2292.8 2265.6-57.5 77.28-26.37-92.64-91.26-30.79 79.95-53.71 1.09-96.32 75.79 59.45 91.93-28.73-33.11 90.45 55.73 78.56-96.25-3.55"/><path d="m2622.6 1259.6c-4.547 3.4425-7.8605 8.2717-9.4479 13.77-24.351 84.152-102.63 142.96-190.35 142.96-16.161 0-32.26-1.9603-47.856-5.8332-10.772-2.6776-22.056 1.6256-28.349 10.758-40.938 59.48-108.41 94.958-180.48 94.958-54.804 0-107.25-20.321-147.66-57.28-40.163-36.721-65.122-86.638-70.276-140.57-0.8893-9.3236-6.6126-17.452-15.071-21.516-2.6345-1.2432-5.2882-2.582-7.8892-4.0164-2.2234-1.2431-4.6093-2.1515-7.086-2.6775-36.95-8.2717-70.515-29.023-94.508-58.476-24.657-30.314-37.691-66.939-37.691-106 0-92.921 76.038-168.53 169.5-168.53h564.23c93.461 0 169.5 75.607 169.5 168.53 0 52.882-24.261 101.7-66.561 133.93" style="paint-order:stroke fill markers"/></g><path d="m1585.4 2606.7c-26.09-7.95-51.866-17.124-77.256-27.524-446.56-182.88-661.09-694.92-478.21-1141.5 88.59-216.3 256.11-385.2 471.71-475.5 131.05-54.881 270.32-76.712 407.97-65.552-108 20.568-190.85 115.83-190.85 229.32 0 25.923 4.3857 51.472 12.7 75.659-132.79 104.57-235.68 240.94-300.89 400.17-81.7 199.5-96.11 414.9-41.66 622.92 36.65 139.99 104.56 271.12 196.49 382.03z" fill="#e1c014"/></g></g></svg>
