<svg width="189.63" height="228.4" version="1.1" viewBox="0 0 189.63 228.4" xml:space="preserve" xmlns="http://www.w3.org/2000/svg"><g transform="matrix(1.3333 0 0 -1.3333 -128.91 347.53)"><g transform="scale(.1)"><path d="m1432.7 1601.5c-81.7 199.5-96.11 414.9-41.66 622.92 36.65 139.99 104.57 271.12 196.5 382.03-26.09-7.95-51.87-17.13-77.26-27.53-446.56-182.88-661.08-694.92-478.21-1141.5 88.59-216.3 256.11-385.2 471.71-475.5 215.61-90.296 453.48-91.296 669.8-2.699 25.4 10.403 50.21 21.903 74.39 34.602-143.34 14.499-283.7 60.299-408.02 134.4-184.72 110.1-325.54 273.8-407.25 473.3" fill="#e1c014"/><path d="m1883 1681.7-38.9-145.2 138.91 57.4 126.06-81.8-11.7 149.8 116.81 94.6-146.14 35.2-53.86 140.3-78.62-128.1-150.11-7.8 97.55-114.4" fill="#61c9e7"/><path d="m2292.8 2265.6-57.5 77.28-26.37-92.64-91.26-30.79 79.95-53.71 1.09-96.32 75.79 59.45 91.93-28.73-33.11 90.45 55.73 78.56-96.25-3.55" fill="#61c9e7"/></g></g></svg>
