<svg width="318.94" height="289.62" version="1.1" viewBox="0 0 318.94 289.62" xml:space="preserve" xmlns="http://www.w3.org/2000/svg"><g transform="matrix(1.3333 0 0 -1.3333 -446.13 760.34)"><g transform="scale(.1)"><g fill="#61c9e7"><path d="m5483.9 4745.7c-9.51 7.24-16.44 17.35-19.76 28.83-50.93 176.04-214.64 298.99-398.11 298.99-33.8 0-67.47-4.1-100.1-12.19-22.51-5.58-46.12 3.38-59.28 22.48-85.62 124.39-226.73 198.65-377.47 198.65-114.62 0-224.3-42.56-308.83-119.83-84-76.79-136.2-181.18-146.98-293.95-1.86-19.5-13.83-36.59-31.52-45-5.51-2.62-11.06-5.48-16.5-8.48-4.65-2.57-9.64-4.46-14.82-5.62-77.28-17.24-147.48-60.68-197.66-122.3-51.57-63.31-78.83-139.95-78.83-221.62 0-194.36 159.03-352.49 354.5-352.49h1180.1c195.47 0 354.5 158.13 354.5 352.49 0 110.6-50.74 212.67-139.21 280.04" style="paint-order:stroke fill markers"/><path d="m4245.7 3530.4c5.4 0 10.9 0.79 16.34 2.46 29.41 9.01 45.94 40.16 36.93 69.57l-67.06 218.82c-9.02 29.42-40.17 45.95-69.57 36.94-29.41-9.02-45.95-40.16-36.94-69.57l67.06-218.83c7.35-23.98 29.4-39.39 53.24-39.39"/><path d="m4712.1 3530.4c5.4 0 10.9 0.79 16.33 2.46 29.41 9.01 45.95 40.16 36.94 69.57l-67.06 218.82c-9.02 29.42-40.17 45.95-69.58 36.94-29.41-9.02-45.94-40.16-36.93-69.57l67.06-218.83c7.35-23.98 29.4-39.39 53.24-39.39"/><path d="m5178.5 3530.4c5.4 0 10.9 0.79 16.33 2.46 29.41 9.01 45.95 40.16 36.94 69.57l-67.07 218.82c-9.01 29.42-40.16 45.95-69.57 36.94-29.41-9.02-45.94-40.16-36.93-69.57l67.06-218.83c7.35-23.98 29.4-39.39 53.24-39.39"/></g><path d="m3951 5709.4c-25.219-7.6845-50.136-16.564-74.678-26.616-431.65-176.77-639.01-671.71-462.25-1103.4 61.416-149.95 162.09-276.32 290.99-368.01-50.987 74.697-80.903 164.64-80.903 261.18 0 107.23 36.919 211.03 104.63 294.17h0.015c13.875 17.038 28.918 32.946 44.883 47.754-53.812 170.76-58.369 350.89-12.627 525.64 35.426 135.32 101.07 262.07 189.93 369.27z" fill="#e1c014"/></g></g></svg>
