<svg width="238.3" height="228.57" version="1.1" viewBox="0 0 238.3 228.57" xml:space="preserve" xmlns="http://www.w3.org/2000/svg"><g transform="matrix(1.3333 0 0 -1.3333 -128.91 347.53)"><g transform="scale(.1)"><g fill="#61c9e7"><path d="m1654.2 2107.5-38.9-145.2 138.91 57.4 126.06-81.8-11.7 149.8 116.81 94.6-146.14 35.2-53.86 140.3-78.62-128.1-150.11-7.8 97.55-114.4"/><path d="m2292.8 2265.6-57.5 77.28-26.37-92.64-91.26-30.79 79.95-53.71 1.09-96.32 75.79 59.45 91.93-28.73-33.11 90.45 55.73 78.56-96.25-3.55"/><path d="m2558.2 1439.2c-6.7701 5.1257-11.704 12.316-14.067 20.503-36.257 125.29-152.8 212.86-283.42 212.86-24.062 0-48.032-2.9188-71.254-8.6852-16.039-3.9867-32.84 2.4204-42.209 16.018-60.953 88.561-161.41 141.38-268.72 141.38-81.598 0-159.68-30.256-219.86-85.286-59.8-54.674-96.961-129-104.64-209.3-1.3241-13.882-9.8456-25.984-22.439-32.036-3.9225-1.851-7.8736-3.8443-11.746-5.98-3.3104-1.8509-6.8628-3.2035-10.55-3.9866-55.016-12.316-104.99-43.212-140.71-87.066-36.713-45.135-56.119-99.666-56.119-157.83 0-138.35 113.21-250.92 252.37-250.92h840.09c139.16 0 252.37 112.57 252.37 250.92 0 78.736-36.122 151.42-99.104 199.4" style="paint-order:stroke fill markers"/></g><path d="m1588.6 2609c-26.09-7.95-51.866-17.124-77.256-27.524-446.56-182.88-661.09-694.92-478.21-1141.5 46.026-112.38 113.4-211.92 197.71-294.33-9.0519 30.759-14.004 63.202-14.004 96.753 0 79.679 27.548 157.1 77.798 218.88l0.044 0.06c40.587 49.824 93.917 87.172 153.88 108.5-5.1192 11.297-10.068 22.693-14.795 34.233-81.7 199.5-96.11 414.9-41.66 622.92 36.65 139.99 104.56 271.12 196.49 382.03z" fill="#e1c014"/></g></g></svg>
