<svg width="251.87" height="236.67" version="1.1" viewBox="0 0 251.87 236.67" xml:space="preserve" xmlns="http://www.w3.org/2000/svg"><g transform="matrix(1.3333 0 0 -1.3333 -879.01 1110)"><g transform="scale(.1)" fill="#61c9e7"><path d="m8342.4 7788.5c-9.51 7.25-16.44 17.35-19.76 28.84-50.94 176.04-214.65 298.99-398.12 298.99-33.79 0-67.47-4.1-100.09-12.19-22.48-5.57-46.13 3.37-59.28 22.48-85.63 124.38-226.74 198.64-377.47 198.64-114.63 0-224.31-42.55-308.83-119.82-84.01-76.79-136.2-181.18-146.98-293.95-1.86-19.5-13.84-36.59-31.53-45.01-5.51-2.61-11.05-5.46-16.5-8.47-4.64-2.57-9.63-4.46-14.82-5.62-77.27-17.24-147.47-60.68-197.65-122.3-51.57-63.32-78.83-139.95-78.83-221.62 0-194.36 159.03-352.49 354.5-352.49h1180.1c195.47 0 354.5 158.13 354.5 352.49 0 110.6-50.74 212.67-139.2 280.03"/><path d="m6909.6 6923.9c-27.46 0-49.73-22.26-49.73-49.72v-76.62l-81.44 22.08c-26.52 7.19-53.82-8.48-61-34.99-7.18-26.5 8.48-53.81 34.98-60.99l78.35-21.24-47.35-72.98c-14.95-23.03-8.39-53.82 14.65-68.77 8.36-5.43 17.74-8.02 27.01-8.02 16.28 0 32.24 7.99 41.76 22.67l43.49 67.02 47.1-70.12c9.6-14.29 25.32-22 41.32-22 9.54 0 19.18 2.74 27.69 8.45 22.79 15.32 28.86 46.21 13.54 69.01l-50.42 75.05 77.22 20.93c26.51 7.18 42.17 34.49 34.99 60.99-7.18 26.51-34.47 42.17-61 34.99l-81.44-22.08v76.62c0 27.46-22.26 49.72-49.72 49.72"/><path d="m7537.1 6923.9c-27.46 0-49.72-22.26-49.72-49.72v-76.62l-81.45 22.08c-26.51 7.19-53.81-8.48-60.99-34.99-7.19-26.5 8.48-53.81 34.98-60.99l78.35-21.24-47.35-72.98c-14.95-23.03-8.39-53.82 14.64-68.77 8.37-5.43 17.75-8.02 27.02-8.02 16.28 0 32.24 7.99 41.76 22.67l43.48 67.02 47.11-70.12c9.6-14.29 25.31-22 41.32-22 9.53 0 19.17 2.74 27.68 8.45 22.8 15.32 28.86 46.21 13.55 69.01l-50.42 75.05 77.22 20.93c26.5 7.18 42.17 34.49 34.99 60.99-7.19 26.51-34.48 42.17-61 34.99l-81.45-22.08v76.62c0 27.46-22.26 49.72-49.72 49.72"/><path d="m8164.6 6923.9c-27.46 0-49.72-22.26-49.72-49.72v-76.62l-81.45 22.08c-26.51 7.19-53.81-8.48-61-34.99-7.18-26.5 8.48-53.81 34.99-60.99l78.35-21.24-47.36-72.98c-14.94-23.03-8.39-53.82 14.65-68.77 8.36-5.43 17.74-8.02 27.02-8.02 16.28 0 32.23 7.99 41.76 22.67l43.48 67.02 47.11-70.12c9.6-14.29 25.31-22 41.32-22 9.53 0 19.17 2.74 27.68 8.45 22.79 15.32 28.86 46.21 13.54 69.01l-50.42 75.05 77.23 20.93c26.5 7.18 42.17 34.49 34.98 60.99-7.18 26.51-34.47 42.17-61 34.99l-81.44-22.08v76.62c0 27.46-22.26 49.72-49.72 49.72"/></g></g></svg>
