<svg width="307.19" height="213.61" version="1.1" viewBox="0 0 307.19 213.61" xml:space="preserve" xmlns="http://www.w3.org/2000/svg"><g transform="matrix(1.3333 0 0 -1.3333 -442.56 1513.6)"><g transform="scale(.1)"><path d="m5483.9 10382c-9.51 7.2-16.44 17.3-19.76 28.8-50.93 176-214.64 299-398.11 299-33.8 0-67.47-4.1-100.09-12.2-22.53-5.6-46.13 3.4-59.29 22.5-85.62 124.4-226.73 198.6-377.47 198.6-114.62 0-224.3-42.5-308.83-119.8-84-76.8-136.2-181.2-146.98-294-1.86-19.5-13.83-36.5-31.52-45-5.51-2.6-11.06-5.4-16.5-8.4-4.65-2.6-9.64-4.5-14.82-5.6-77.28-17.3-147.48-60.7-197.66-122.3-51.57-63.4-78.83-140-78.83-221.7 0-194.34 159.03-352.47 354.5-352.47h1180.1c195.47 0 354.5 158.13 354.5 352.47 0 110.6-50.74 212.7-139.21 280.1" fill="#61c9e7"/><g fill="#dec60f"><path d="m3736.1 10658c0-69.5 25.67-135.2 71.54-185.7 47.48 35.7 101.58 62.4 159.15 77.9 19.97 127.1 82.51 243.7 178.38 331.3 4.5 4.1 9.08 8.1 13.7 12.1-43.36 26.9-93.42 41.4-145.79 41.4-152.73 0-276.98-124.2-276.98-277"/><path d="m4013.1 11084c30.76 0 55.69 25 55.69 55.7v156.7c0 30.8-24.93 55.7-55.69 55.7s-55.7-24.9-55.7-55.7v-156.7c0-30.7 24.94-55.7 55.7-55.7"/><path d="m3724.1 11047c10.31-17.9 29.04-27.9 48.29-27.9 9.44 0 19.02 2.4 27.79 7.5 26.64 15.4 35.77 49.4 20.39 76.1l-78.35 135.7c-15.39 26.6-49.45 35.7-76.09 20.4-26.64-15.4-35.76-49.5-20.39-76.1l78.36-135.7"/><path d="m3432.5 10929 135.71-78.4c8.77-5 18.35-7.4 27.8-7.4 19.25 0 37.97 10 48.29 27.8 15.38 26.7 6.25 60.7-20.39 76.1l-135.71 78.4c-26.64 15.3-60.71 6.2-76.09-20.4-15.38-26.7-6.25-60.7 20.39-76.1"/><path d="m3374.9 10602h156.71c30.76 0 55.7 25 55.7 55.7 0 30.8-24.94 55.7-55.7 55.7h-156.71c-30.76 0-55.69-24.9-55.69-55.7 0-30.7 24.93-55.7 55.69-55.7"/><path d="m3644.3 10445c-15.39 26.7-49.45 35.8-76.09 20.4l-135.71-78.3c-26.64-15.4-35.77-49.5-20.39-76.1 10.32-17.9 29.04-27.9 48.29-27.9 9.45 0 19.03 2.4 27.8 7.5l135.71 78.3c26.64 15.4 35.77 49.5 20.39 76.1"/><path d="m4226 11027c8.78-5.1 18.35-7.5 27.8-7.5 19.25 0 37.97 10 48.29 27.9l78.35 135.7c15.38 26.6 6.25 60.7-20.39 76.1-26.64 15.3-60.7 6.2-76.08-20.4l-78.36-135.7c-15.37-26.7-6.25-60.7 20.39-76.1"/></g></g></g></svg>
