<svg width="307.19" height="291.33" version="1.1" viewBox="0 0 307.19 291.33" xml:space="preserve" xmlns="http://www.w3.org/2000/svg"><g transform="matrix(1.3333 0 0 -1.3333 -442.56 762.04)"><g transform="scale(.1)"><path d="m3736.1 5021.4c0-69.55 25.67-135.19 71.54-185.76 47.49 35.73 101.58 62.39 159.15 77.91 19.97 127.09 82.51 243.7 178.38 331.34 4.5 4.12 9.08 8.12 13.69 12.08-43.35 26.94-93.41 41.41-145.78 41.41-152.73 0-276.98-124.25-276.98-276.98" fill="#dec60f"/><g fill="#61c9e7"><path d="m5483.9 4745.7c-9.51 7.24-16.44 17.35-19.76 28.83-50.93 176.04-214.64 298.99-398.11 298.99-33.8 0-67.47-4.1-100.1-12.19-22.51-5.58-46.12 3.38-59.28 22.48-85.62 124.39-226.73 198.65-377.47 198.65-114.62 0-224.3-42.56-308.83-119.83-84-76.79-136.2-181.18-146.98-293.95-1.86-19.5-13.83-36.59-31.52-45-5.51-2.62-11.06-5.48-16.5-8.48-4.65-2.57-9.64-4.46-14.82-5.62-77.28-17.24-147.48-60.68-197.66-122.3-51.57-63.31-78.83-139.95-78.83-221.62 0-194.36 159.03-352.49 354.5-352.49h1180.1c195.47 0 354.5 158.13 354.5 352.49 0 110.6-50.74 212.67-139.21 280.04"/><path d="m4034.4 3737.1c5.4 0 10.9 0.79 16.34 2.46 29.41 9.01 45.94 40.16 36.93 69.57l-67.06 218.82c-9.02 29.42-40.17 45.95-69.57 36.94-29.41-9.02-45.95-40.16-36.94-69.57l67.06-218.83c7.35-23.98 29.4-39.39 53.24-39.39"/><path d="m4500.8 3737.1c5.4 0 10.9 0.79 16.33 2.46 29.41 9.01 45.95 40.16 36.94 69.57l-67.06 218.82c-9.02 29.42-40.17 45.95-69.58 36.94-29.41-9.02-45.94-40.16-36.93-69.57l67.06-218.83c7.35-23.98 29.4-39.39 53.24-39.39"/><path d="m4967.2 3737.1c5.4 0 10.9 0.79 16.33 2.46 29.41 9.01 45.95 40.16 36.94 69.57l-67.07 218.82c-9.01 29.42-40.16 45.95-69.57 36.94-29.41-9.02-45.94-40.16-36.93-69.57l67.06-218.83c7.35-23.98 29.4-39.39 53.24-39.39"/></g><g fill="#dec60f"><path d="m3957.4 5659.6v-156.71c0-30.76 24.94-55.69 55.7-55.69s55.69 24.93 55.69 55.69v156.71c0 30.76-24.93 55.7-55.69 55.7s-55.7-24.94-55.7-55.7"/><path d="m3772.4 5382.7c9.44 0 19.02 2.4 27.79 7.47 26.64 15.38 35.77 49.44 20.39 76.08l-78.35 135.72c-15.39 26.64-49.45 35.77-76.09 20.39s-35.76-49.45-20.39-76.09l78.36-135.71c10.31-17.87 29.04-27.86 48.29-27.86"/><path d="m3623.9 5310.4-135.71 78.35c-26.64 15.38-60.71 6.26-76.09-20.38s-6.25-60.71 20.39-76.09l135.71-78.35c8.77-5.07 18.35-7.47 27.8-7.47 19.25 0 37.97 9.99 48.29 27.85 15.38 26.64 6.25 60.7-20.39 76.09"/><path d="m3587.3 5021.4c0 30.76-24.94 55.7-55.7 55.7h-156.71c-30.76 0-55.69-24.94-55.69-55.7s24.93-55.7 55.69-55.7h156.71c30.76 0 55.7 24.94 55.7 55.7"/><path d="m3623.9 4732.4c26.64 15.38 35.77 49.44 20.39 76.08s-49.45 35.78-76.09 20.39l-135.71-78.35c-26.64-15.38-35.77-49.44-20.39-76.08 10.32-17.87 29.04-27.86 48.29-27.86 9.45 0 19.03 2.4 27.8 7.47l135.71 78.35"/><path d="m4226 5390.2c8.78-5.07 18.35-7.47 27.8-7.47 19.25 0 37.97 9.99 48.29 27.86l78.35 135.71c15.38 26.64 6.25 60.71-20.39 76.09-26.64 15.37-60.7 6.25-76.08-20.39l-78.36-135.72c-15.37-26.64-6.25-60.7 20.39-76.08"/></g><g fill="#61c9e7"><path d="m4777.4 3536c5.4 0 10.9 0.79 16.34 2.46 29.41 9.01 45.94 40.16 36.93 69.57l-67.06 218.82c-9.02 29.42-40.17 45.95-69.57 36.94-29.41-9.02-45.95-40.16-36.94-69.57l67.06-218.83c7.35-23.98 29.4-39.39 53.24-39.39"/><path d="m4314.5 3545c5.4 0 10.9 0.79 16.34 2.46 29.41 9.01 45.94 40.16 36.93 69.57l-67.06 218.82c-9.02 29.42-40.17 45.95-69.57 36.94-29.41-9.02-45.95-40.16-36.94-69.57l67.06-218.83c7.35-23.98 29.4-39.39 53.24-39.39"/><path d="m5420.6 3753.4c5.4 0 10.9 0.79 16.33 2.46 29.41 9.01 45.95 40.16 36.94 69.57l-67.07 218.82c-9.01 29.42-40.16 45.95-69.57 36.94-29.41-9.02-45.94-40.16-36.93-69.57l67.06-218.83c7.35-23.98 29.4-39.39 53.24-39.39"/><path d="m5230.8 3552.3c5.4 0 10.9 0.79 16.34 2.46 29.41 9.01 45.94 40.16 36.93 69.57l-67.06 218.82c-9.02 29.42-40.17 45.95-69.57 36.94-29.41-9.02-45.95-40.16-36.94-69.57l67.06-218.83c7.35-23.98 29.4-39.39 53.24-39.39"/></g></g></g></svg>
