<svg width="280.5" height="280.5" version="1.1" viewBox="0 0 280.5 280.5" xml:space="preserve" xmlns="http://www.w3.org/2000/svg"><g transform="matrix(1.3333 0 0 -1.3333 -844.1 756.63)"><g transform="scale(.1)"><path d="m8258.5 4026.8c-5.5468 4.1996-9.5888 10.09-11.525 16.798-29.706 102.65-125.19 174.4-232.2 174.4-19.714 0-39.353-2.3914-58.379-7.1159-13.141-3.2662-26.906 1.9832-34.582 13.124-49.939 72.558-132.24 115.84-220.16 115.84-66.854 0-130.83-24.789-180.13-69.875-48.994-44.795-79.44-105.69-85.728-171.48-1.0849-11.374-8.0666-21.289-18.384-26.247-3.2138-1.5165-6.451-3.1496-9.6239-4.8993-2.7122-1.5166-5.6226-2.6248-8.644-3.2664-45.075-10.09-86.02-35.404-115.29-71.333-30.079-36.979-45.979-81.657-45.979-129.31 0-113.35 92.756-205.58 206.77-205.58h688.29c114.01 0 206.77 92.231 206.77 205.58 0 64.509-29.595 124.06-81.196 163.37" fill="#61c9e7" style="paint-order:stroke fill markers"/><g fill="#dec60f"><path d="m7382.4 5144.4c-288.58 0-523.37-234.8-523.37-523.39 0-250.01 176.25-459.5 410.99-511.08 23.118 16.117 48.427 28.994 75.234 38.203 15.904 73.487 54.271 140.69 110.3 191.92l0.015 0.015c67.148 61.397 154.93 95.391 245.86 95.391 54.524 0 107.46-12.341 155.43-34.995 31.304 67.073 48.896 141.78 48.896 220.55 0 288.59-234.77 523.39-523.36 523.39zm-6.7822-985.85-0.63-0.2933c-0.129-0.06-0.2378-0.1425-0.366-0.2055 0.3172 0.1508 0.681 0.3495 0.9961 0.498z"/><path d="m7326.9 5383.1c0-30.76 24.94-55.69 55.69-55.69 30.76 0 55.7 24.93 55.7 55.69v235.94c0 30.75-24.94 55.69-55.7 55.69-30.75 0-55.69-24.94-55.69-55.69v-235.94"/><path d="m7002.5 5225.5c9.46 0 19.03 2.41 27.8 7.47 26.64 15.38 35.77 49.45 20.39 76.09l-117.97 204.32c-15.38 26.64-49.45 35.77-76.08 20.39-26.64-15.38-35.77-49.44-20.39-76.08l117.97-204.33c10.31-17.87 29.03-27.86 48.28-27.86"/><path d="m6471.6 5148.8c-15.38-26.64-6.25-60.71 20.39-76.09l204.33-117.96c8.77-5.07 18.35-7.47 27.8-7.47 19.24 0 37.97 9.99 48.28 27.85 15.38 26.64 6.25 60.71-20.38 76.09l-204.33 117.96c-26.64 15.38-60.71 6.26-76.09-20.38"/><path d="m6678 4622.8c0 30.76-24.94 55.7-55.7 55.7h-235.93c-30.76 0-55.7-24.94-55.7-55.7s24.94-55.7 55.7-55.7h235.93c30.76 0 55.7 24.94 55.7 55.7"/><path d="m8378.8 4678.5h-235.94c-30.76 0-55.7-24.94-55.7-55.7s24.94-55.7 55.7-55.7h235.94c30.76 0 55.7 24.94 55.7 55.7s-24.94 55.7-55.7 55.7"/><path d="m6696.4 4291-204.33-117.97c-26.64-15.38-35.77-49.45-20.39-76.08 10.32-17.87 29.04-27.86 48.29-27.86 9.45 0 19.03 2.41 27.8 7.47l204.33 117.97c26.63 15.38 35.76 49.45 20.38 76.08-15.38 26.65-49.45 35.77-76.08 20.39"/><path d="m8217.5 5169.2-204.33-117.96c-26.64-15.38-35.77-49.45-20.39-76.09 10.32-17.86 29.04-27.85 48.29-27.85 9.45 0 19.03 2.4 27.8 7.47l204.32 117.96c26.64 15.38 35.77 49.45 20.39 76.09s-49.45 35.76-76.08 20.38"/><path d="m6954.2 3992.3-117.97-204.33c-15.38-26.64-6.25-60.71 20.39-76.08 8.77-5.07 18.35-7.47 27.8-7.47 19.24 0 37.97 9.99 48.28 27.85l117.97 204.33c15.38 26.64 6.25 60.71-20.39 76.08-26.63 15.38-60.7 6.26-76.08-20.38"/><path d="m7734.9 5233c8.77-5.06 18.35-7.47 27.8-7.47 19.25 0 37.97 9.99 48.29 27.86l117.97 204.33c15.38 26.64 6.25 60.7-20.39 76.08-26.63 15.37-60.71 6.25-76.08-20.39l-117.98-204.32c-15.37-26.64-6.25-60.7 20.39-76.09"/></g></g></g></svg>
