<svg width="251.88" height="229.04" version="1.1" viewBox="0 0 251.88 229.04" xml:space="preserve" xmlns="http://www.w3.org/2000/svg"><g transform="matrix(1.3333 0 0 -1.3333 -1239.2 1469.2)"><g transform="scale(.1)"><path d="m9860.1 9964.6 247.81 729.56h313.1l-182.6-492.7h378.2l-230.5-351.57h442.3c195.5 0 354.5 158.17 354.5 352.47 0 110.6-50.7 212.7-139.2 280.1-9.5 7.2-16.4 17.3-19.8 28.8-50.9 176-214.6 299-398.1 299-33.8 0-67.5-4.1-100.1-12.2-22.5-5.6-46.1 3.4-59.3 22.5-85.6 124.4-226.7 198.6-377.4 198.6-114.65 0-224.33-42.5-308.86-119.8-84-76.8-136.2-181.2-146.97-294-1.87-19.5-13.85-36.6-31.55-45-5.47-2.6-11.02-5.4-16.48-8.4-4.65-2.6-9.64-4.5-14.82-5.7-77.28-17.2-147.48-60.6-197.66-122.2-51.57-63.4-78.83-140-78.83-221.7 0-194.3 159.03-352.47 354.5-352.47h515.57l28.8 114.71h-332.61" fill="#61c9e7"/><path d="m10238 10202 182.6 492.7h-313.1l-247.81-729.56h332.61l-28.8-114.71-27.9-111.39-109.6-437.13 286.6 437.13 73.1 111.39 230.5 351.57h-378.2" fill="#dec60f"/></g></g></svg>
