<svg width="245.8" height="298.37" version="1.1" viewBox="0 0 245.8 298.37" xml:space="preserve" xmlns="http://www.w3.org/2000/svg"><g transform="matrix(1.3333 0 0 -1.3333 -1242.2 384.79)"><g transform="scale(.1)" fill="#4492a8"><path d="m9316.3 1889.5c66.79 41.5 160.38 83.4 265.56 83.4 174.06 0 260.44-59.6 332.03-126.5 68.32 61.2 158.1 126.5 329.8 126.5 171 0 272.1-68.1 332-123.4 68.4 65.3 162.1 123.4 329.7 123.4 102.1 0 190.6-39.4 254.4-79.7-67 400.13-454.7 707.97-921.4 707.97-468.24 0-856.89-309.75-922.09-711.67"/><path d="m10183 1858v-854.7c0-92.402 28.7-179.8 80.9-246.2 55.2-70.204 129.9-108.9 210.3-108.9 80.3 0 155 38.699 210.3 108.9 52.2 66.398 80.9 153.8 80.9 246.2 0 30.8-24.9 55.7-55.7 55.7s-55.7-24.9-55.7-55.7c0-134.4-80.7-243.7-179.8-243.7-99.2 0-179.8 109.3-179.8 243.7v855.7c-15.9 1.6-32.6 2.5-50.4 2.5-22.3 0-42.4-1.2-61-3.5"/><path d="m10294 2711.2v119.05c0 30.75-25 55.69-55.7 55.69-30.8 0-55.7-24.94-55.7-55.69v-119.05c18.5 0.88 37 1.35 55.7 1.35 18.6 0 37.2-0.47 55.7-1.35"/></g></g></svg>
